The Help 2011 PPVRIP IFLIX 
http://www.imdb.com/title/tt1454029/
Drama

Language                         : English
Format                           : AVI
Format/Info                      : Audio Video Interleave
File size                        : 1.52 GiB
Duration                         : 2h 25mn
Overall bit rate                 : 1 494 Kbps

Video
ID                               : 0
Format                           : MPEG-4 Visual
Format settings, BVOP            : Yes
Format settings, QPel            : No
Format settings, GMC             : No warppoints
Format settings, Matrix          : Default (H.263)
Codec ID                         : DX50
Codec ID/Hint                    : DivX 5
Duration                         : 2h 25mn
Bit rate                         : 1 354 Kbps
Width                            : 640 pixels
Height                           : 480 pixels
Display aspect ratio             : 4:3
Frame rate                       : 30.000 fps
Resolution                       : 24 bits
Colorimetry                      : 4:2:0
Scan type                        : Progressive
Bits/(Pixel*Frame)               : 0.147
Stream size                      : 1.38 GiB (91%)
Writing library                  : DivX 2151n

Audio
ID                               : 1
Format                           : MPEG Audio
Format version                   : Version 1
Format profile                   : Layer 3
Codec ID                         : 55
Codec ID/Hint                    : MP3
Duration                         : 2h 25mn
Bit rate mode                    : Constant
Bit rate                         : 128 Kbps
Channel(s)                       : 2 channels
Sampling rate                    : 48.0 KHz
Resolution                       : 16 bits
Stream size                      : 133 MiB (9%)
Alignment                        : Aligned on interleaves
Interleave, duration             : 33 ms (1.00 video frame)

Release notes...

Another quality release from IFLIX
More to come very soon!

Video source: Ours
Audio source: Ours

Greetings to all other groups out there. You all do awesome work and we greatly appreciate it.
IFLIX :-)